Coordinates
version=1
nRows=54
nColumns=12
inDegrees=yes

Units are S.I. units (second, meters, Newtons, ...)
Angles are in degrees

endheader
time	SC_y	SC_z	SC_x	AC_y	AC_z	AC_x	GH_y	GH_z	GH_yy	EL_x	PS_y
       0.0              -40.97          23.51          60.04          49.44         -19.54           10.9          33.83         -15.09          84.84          135.6          57.07
   0.04456              -40.97          23.51          60.03          49.44         -19.54           10.9           33.8         -15.08          84.84          135.6          57.08
   0.08912              -40.96           23.5          60.02          49.43         -19.53           10.9          33.77         -15.08          84.84          135.5           57.1
    0.1337              -40.96           23.5          60.01          49.43         -19.53           10.9          33.74         -15.07          84.85          135.5          57.11
    0.1782              -40.96           23.5          60.01          49.43         -19.53           10.9          33.71         -15.05          84.85          135.5          57.12
    0.2228              -40.96          23.49           60.0          49.43         -19.53           10.9          33.68         -15.04          84.86          135.5          57.14
    0.2673              -40.95          23.49          59.99          49.42         -19.53          10.89          33.64         -15.03          84.86          135.5          57.16
    0.3119              -40.95          23.49          59.98          49.42         -19.52          10.89          33.61         -15.02          84.87          135.4          57.17
    0.3565              -40.95          23.48          59.97          49.42         -19.52          10.89          33.57          -15.0          84.87          135.4          57.19
     0.401              -40.95          23.48          59.96          49.41         -19.52          10.89          33.52         -14.99          84.88          135.4          57.21
    0.4456              -40.94          23.48          59.94          49.41         -19.51          10.89          33.48         -14.97          84.89          135.4          57.23
    0.4901              -40.94          23.47          59.93           49.4         -19.51          10.89          33.43         -14.96          84.89          135.3          57.25
    0.5347              -40.94          23.47          59.92           49.4          -19.5          10.89          33.37         -14.94           84.9          135.3          57.28
    0.5793              -40.93          23.46           59.9          49.39          -19.5          10.89          33.32         -14.92          84.91          135.3           57.3
    0.6238              -40.93          23.45          59.89          49.39          -19.5          10.89          33.25          -14.9          84.92          135.2          57.33
    0.6684              -40.92          23.45          59.87          49.38         -19.49          10.88          33.19         -14.87          84.93          135.2          57.36
    0.7129              -40.92          23.44          59.85          49.37         -19.48          10.88          33.11         -14.85          84.94          135.2           57.4
    0.7575              -40.91          23.43          59.83          49.36         -19.48          10.88          33.03         -14.82          84.95          135.1          57.43
     0.802              -40.91          23.42          59.81          49.36         -19.47          10.88          32.94         -14.79          84.96          135.0          57.47
    0.8466               -40.9          23.42          59.78          49.35         -19.46          10.88          32.85         -14.76          84.98          135.0          57.52
    0.8912              -40.89          23.41          59.75          49.34         -19.46          10.87          32.74         -14.72          84.99          134.9          57.57
    0.9357              -40.88          23.39          59.72          49.33         -19.45          10.87          32.62         -14.68          85.01          134.9          57.62
    0.9803              -40.87          23.38          59.69          49.31         -19.44          10.87           32.5         -14.64          85.03          134.8          57.68
     1.025              -40.86          23.37          59.65           49.3         -19.43          10.86          32.35         -14.59          85.05          134.7          57.74
     1.069              -40.85          23.35          59.61          49.29         -19.41          10.86          32.19         -14.53          85.07          134.6          57.81
     1.114              -40.84          23.34          59.57          49.27          -19.4          10.86          32.02         -14.47          85.09          134.5          57.89
     1.159              -40.83          23.32          59.51          49.25         -19.39          10.85          31.82          -14.4          85.12          134.4          57.98
     1.203              -40.81           23.3          59.46          49.23         -19.37          10.85           31.6         -14.33          85.15          134.2          58.09
     1.248              -40.79          23.27          59.39           49.2         -19.35          10.84          31.35         -14.24          85.19          134.1           58.2
     1.292              -40.77          23.25          59.32          49.18         -19.33          10.83          31.06         -14.14          85.23          133.9          58.33
     1.337              -40.75          23.22          59.23          49.15          -19.3          10.83          30.73         -14.03          85.28          133.7          58.48
     1.381              -40.72          23.18          59.14          49.11         -19.27          10.82          30.36          -13.9          85.33          133.5          58.65
     1.426              -40.69          23.14          59.02          49.07         -19.24          10.81          29.93         -13.75          85.39          133.2          58.84
      1.47              -40.66          23.09          58.89          49.02          -19.2           10.8          29.43         -13.58          85.46          132.9          59.07
     1.515              -40.62          23.04          58.74          48.97         -19.16          10.78          28.84         -13.38          85.55          132.6          59.34
      1.56              -40.57          22.97          58.56           48.9          -19.1          10.77          28.15         -13.14          85.65          132.2          59.65
     1.604              -40.51          22.89          58.35          48.82         -19.04          10.75          27.32         -12.86          85.77          131.7          60.03
     1.649              -40.44           22.8          58.09          48.73         -18.97          10.73          26.34         -12.52          85.91          131.1          60.47
     1.693              -40.36          22.69          57.78          48.62         -18.88           10.7          25.14         -12.11          86.08          130.3          61.02
     1.738              -40.25          22.55           57.4          48.48         -18.76          10.66          23.68         -11.61          86.29          129.5          61.68
     1.782              -40.13          22.38          56.94          48.31         -18.63          10.62          21.88         -10.99          86.54          128.4           62.5
     1.827              -39.97          22.17          56.35          48.09         -18.45          10.57          19.64         -10.22          86.87          127.0          63.52
     1.871              -39.77           21.9          55.62          47.83         -18.24           10.5          16.81         -9.251          87.27          125.3           64.8
     1.916              -39.51          21.56          54.69          47.49         -17.96          10.42          13.22         -8.017          87.78          123.2          66.43
     1.961              -39.19          21.13          53.49          47.05         -17.61          10.31          8.619         -6.437          88.44          120.4          68.52
     2.005              -38.77          20.57          51.96          46.49         -17.16          10.18          2.716          -4.41          89.29          116.8           71.2
      2.05              -38.24          19.86          50.01          45.78         -16.58           10.0         -4.824          -1.82          90.37          112.3          74.62
     2.094              -37.57          18.97          47.55          44.88         -15.86          9.781          -14.3          1.436          91.72          106.6          78.93
     2.139              -36.76          17.88          44.55          43.78         -14.98          9.512         -25.86          5.404          93.38          99.62          84.18
     2.183              -35.81          16.62          41.07          42.51         -13.95          9.201         -39.25           10.0          95.29          91.56          90.26
     2.228              -34.79          15.25          37.31          41.14         -12.84          8.864         -53.75          14.98          97.37          82.82          96.84
     2.272              -33.77          13.88          33.55          39.76         -11.73          8.527         -68.25          19.96          99.44          74.08          103.4
     2.317              -32.82          12.62          30.07          38.49         -10.71          8.216         -81.64          24.56          101.4          66.01          109.5
     2.362              -32.01          11.53          27.07           37.4         -9.828          7.948          -93.2          28.53          103.0          59.05          114.8
